<svg xmlns="http://www.w3.org/2000/svg" xmlns:xlink="http://www.w3.org/1999/xlink" id="Layer_1" x="0" y="0" enable-background="new 0 0 1440 1440" version="1.0" viewBox="0 0 1440 1440" xml:space="preserve"><circle cx="720" cy="720" r="720"/><path fill="#FFF" d="M751.4,284H512.5c-0.5,0-1-0.1-1.5-0.1c-66.4,0-120.2,53.8-120.2,120.2v601.1c0,66.4,53.8,120.2,120.2,120.2	s120.2-53.8,120.2-120.2V884.9h120.2c165.7,0,300.4-134.8,300.4-300.5S917,284,751.4,284z"/><g><circle cx="511" cy="404.2" r="120.2" fill="#939393"/><path fill="#939393" d="M1030.1,936.3c38.1,54.4,24.9,129.4-29.5,167.4c-54.4,38.1-129.4,24.9-167.4-29.5l-180-257.2 c-38.1-54.4-24.9-129.4,29.5-167.4C737,611.4,812,624.6,850.1,679L1030.1,936.3z"/></g></svg>